<?xml version="1.0" standalone="no"?>
<!DOCTYPE svg PUBLIC "-//W3C//DTD SVG 20010904//EN"
 "http://www.w3.org/TR/2001/REC-SVG-20010904/DTD/svg10.dtd">
<svg version="1.0" xmlns="http://www.w3.org/2000/svg"
 width="640.000000pt" height="1280.000000pt" viewBox="0 0 640.000000 1280.000000"
 preserveAspectRatio="xMidYMid meet">
<metadata>
Created by potrace 1.15, written by Peter Selinger 2001-2017
</metadata>
<g transform="translate(0.000000,1280.000000) scale(0.100000,-0.100000)"
fill="#000000" stroke="none">
<path d="M573 12776 c-22 -19 -28 -33 -28 -64 0 -39 7 -47 205 -249 1595
-1621 2516 -3697 2724 -6138 41 -475 53 -1213 28 -1645 -20 -333 -73 -914 -84
-926 -3 -2 -252 -17 -554 -33 l-549 -30 -27 -30 c-16 -17 -28 -42 -28 -55 0
-13 17 -66 39 -117 21 -52 93 -227 159 -389 1349 -3310 1247 -3065 1277 -3084
34 -22 70 -20 99 6 14 13 269 480 567 1038 298 558 746 1398 996 1865 250 468
457 864 460 882 4 26 0 37 -25 63 -38 37 10 37 -620 4 -277 -15 -505 -24 -508
-22 -2 3 0 70 6 149 17 231 24 1243 11 1569 -19 459 -49 856 -97 1260 -321
2754 -1291 4648 -2829 5522 -243 137 -480 243 -750 333 -147 49 -389 115 -423
115 -11 0 -33 -11 -49 -24z"/>
</g>
</svg>
