<?xml version="1.0" encoding="UTF-8" standalone="no"?>
<!DOCTYPE svg PUBLIC "-//W3C//DTD SVG 1.1//EN" "http://www.w3.org/Graphics/SVG/1.1/DTD/svg11.dtd">
<svg width="100%" height="100%" viewBox="0 0 1263 642" version="1.1" xmlns="http://www.w3.org/2000/svg" xmlns:xlink="http://www.w3.org/1999/xlink" xml:space="preserve" style="fill-rule:evenodd;clip-rule:evenodd;stroke-linejoin:round;stroke-miterlimit:1.41421;">
    <g transform="matrix(4.16667,0,0,4.16667,0,0)">
        <path d="M33.332,66.512L35.178,66.512L35.178,75.781C35.178,78.95 36.141,79.753 37.886,79.753C39.631,79.753 40.595,78.95 40.595,75.781L40.595,66.512L42.44,66.512L42.44,75.7C42.44,79.713 40.956,81.298 37.886,81.298C34.816,81.298 33.332,79.713 33.332,75.7L33.332,66.512Z" style="fill:rgb(64,63,65);fill-rule:nonzero;"/>
        <path d="M58.089,66.512L58.089,80.997L55.563,80.997L49.843,68.438L49.803,68.438L49.803,80.997L48.158,80.997L48.158,66.512L50.767,66.512L56.404,78.911L56.444,78.911L56.444,66.512L58.089,66.512Z" style="fill:rgb(64,63,65);fill-rule:nonzero;"/>
        <rect x="64.088" y="66.511" width="1.846" height="14.486" style="fill:rgb(64,63,65);fill-rule:nonzero;"/>
        <path d="M76.87,80.997L74.663,80.997L70.47,66.512L72.475,66.512L75.786,79.251L75.826,79.251L79.217,66.512L81.103,66.512L76.87,80.997Z" style="fill:rgb(64,63,65);fill-rule:nonzero;"/>
        <path d="M85.396,80.997L85.396,66.512L92.86,66.512L92.86,68.117L87.242,68.117L87.242,72.771L92.459,72.771L92.459,74.376L87.242,74.376L87.242,79.391L92.98,79.391L92.98,80.997L85.396,80.997Z" style="fill:rgb(64,63,65);fill-rule:nonzero;"/>
        <path d="M99.641,72.731L102.412,72.731C103.734,72.731 104.376,71.587 104.376,70.323C104.376,69.28 103.855,68.117 102.431,68.117L99.641,68.117L99.641,72.731ZM99.641,74.336L99.641,80.997L97.795,80.997L97.795,66.511L102.792,66.511C105.36,66.511 106.263,68.317 106.263,70.123C106.263,71.828 105.32,73.132 103.615,73.433L103.615,73.473C105.279,73.734 105.881,74.296 105.981,77.205C106.001,77.827 106.203,80.095 106.483,80.997L104.558,80.997C104.037,79.994 104.157,78.108 103.996,76.181C103.855,74.417 102.431,74.336 101.809,74.336L99.641,74.336Z" style="fill:rgb(64,63,65);fill-rule:nonzero;"/>
        <path d="M112.823,76.683L112.823,77.104C112.823,79.071 114.067,79.692 115.251,79.692C116.716,79.692 117.84,79.071 117.84,77.346C117.84,74.136 111.339,74.497 111.339,70.143C111.339,67.575 113.165,66.211 115.593,66.211C118.241,66.211 119.725,67.495 119.605,70.444L117.678,70.444C117.699,68.859 117.197,67.816 115.452,67.816C114.348,67.816 113.224,68.377 113.224,69.942C113.224,73.133 119.725,72.671 119.725,77.264C119.725,80.315 117.619,81.298 115.231,81.298C110.958,81.338 110.958,78.067 110.998,76.683L112.823,76.683Z" style="fill:rgb(64,63,65);fill-rule:nonzero;"/>
        <rect x="125.203" y="66.511" width="1.846" height="14.486" style="fill:rgb(64,63,65);fill-rule:nonzero;"/>
        <path d="M141.073,66.512L141.073,68.117L137.26,68.117L137.26,80.997L135.415,80.997L135.415,68.117L131.603,68.117L131.603,66.512L141.073,66.512Z" style="fill:rgb(64,63,65);fill-rule:nonzero;"/>
        <path d="M151.165,62.158L148.537,64.987L147.192,64.987L148.978,62.158L151.165,62.158ZM145.387,80.997L145.387,66.512L152.851,66.512L152.851,68.116L147.232,68.116L147.232,72.771L152.449,72.771L152.449,74.376L147.232,74.376L147.232,79.391L152.971,79.391L152.971,80.997L145.387,80.997Z" style="fill:rgb(64,63,65);fill-rule:nonzero;"/>
        <path d="M166.574,79.391L168.319,79.391C170.888,79.391 171.83,78.429 171.83,75.058L171.83,72.129C171.83,69.2 170.929,68.117 169.001,68.117L166.574,68.117L166.574,79.391ZM164.728,66.512L169.182,66.512C171.028,66.512 172.352,67.174 173.074,68.719C173.656,69.942 173.717,72.831 173.717,73.293C173.717,76.383 173.436,78.168 172.834,79.132C172.051,80.375 170.587,80.997 168.059,80.997L164.728,80.997L164.728,66.512Z" style="fill:rgb(64,63,65);fill-rule:nonzero;"/>
        <path d="M179.354,80.997L179.354,66.512L186.817,66.512L186.817,68.117L181.2,68.117L181.2,72.771L186.416,72.771L186.416,74.376L181.2,74.376L181.2,79.391L186.938,79.391L186.938,80.997L179.354,80.997Z" style="fill:rgb(64,63,65);fill-rule:nonzero;"/>
        <path d="M68.514,101.46L71.592,101.46C76.725,101.46 78.192,98.821 78.143,96.036C78.094,92.908 76.237,91.002 71.592,91.002L68.514,91.002L68.514,101.46ZM72.131,86.897C78.875,86.897 83.078,90.464 83.078,96.232C83.078,100.093 81.075,102.975 77.506,104.393C80.537,106.398 82.393,109.477 84.936,113.631C86.354,115.928 87.184,117.051 89.481,120.23L83.762,120.23L79.364,113.386C74.965,106.543 72.961,105.762 70.518,105.762L68.514,105.762L68.514,120.23L63.725,120.23L63.725,86.897L72.131,86.897Z" style="fill:rgb(64,63,65);fill-rule:nonzero;"/>
        <path d="M112.062,91.197L97.936,91.197L97.936,101.265L111.574,101.265L111.574,105.567L97.936,105.567L97.936,115.928L112.5,115.928L112.5,120.229L93.145,120.229L93.145,86.896L112.062,86.896L112.062,91.197Z" style="fill:rgb(64,63,65);fill-rule:nonzero;"/>
        <path d="M148.425,120.229L144.32,120.229L122.032,94.569L122.032,120.229L117.536,120.229L117.536,86.896L121.347,86.896L143.929,112.702L143.929,86.896L148.425,86.896L148.425,120.229Z" style="fill:rgb(64,63,65);fill-rule:nonzero;"/>
        <path d="M186.595,120.229L182.49,120.229L160.202,94.569L160.202,120.229L155.706,120.229L155.706,86.896L159.519,86.896L182.099,112.702L182.099,86.896L186.595,86.896L186.595,120.229Z" style="fill:rgb(64,63,65);fill-rule:nonzero;"/>
        <path d="M212.841,91.197L198.716,91.197L198.716,101.265L212.353,101.265L212.353,105.567L198.716,105.567L198.716,115.928L213.28,115.928L213.28,120.229L193.927,120.229L193.927,86.896L212.841,86.896L212.841,91.197Z" style="fill:rgb(64,63,65);fill-rule:nonzero;"/>
        <path d="M234.198,94.227C231.364,91.54 228.628,90.757 226.38,90.757C223.3,90.757 221.101,92.37 221.101,94.716C221.101,101.119 235.519,101.021 235.519,111.626C235.519,116.856 231.56,120.668 226.185,120.668C222.567,120.668 219.634,119.691 216.849,117.589L216.849,111.529C219.292,114.657 222.372,116.368 225.646,116.368C229.36,116.368 231.071,114.022 231.071,112.165C231.071,105.273 216.653,104.491 216.653,95.352C216.653,89.927 220.661,86.457 226.771,86.457C229.312,86.457 231.854,87.239 234.198,88.803L234.198,94.227Z" style="fill:rgb(64,63,65);fill-rule:nonzero;"/>
        <path d="M269.573,82.637L269.548,82.62L269.548,81.396L267.476,81.396L267.253,82.083C265.681,84.132 260.394,90.335 251.854,93.524L252.55,95.612C255.194,94.581 257.463,93.399 259.428,92.182L259.428,119.514L269.548,119.514L269.548,82.678C269.554,82.667 269.571,82.642 269.573,82.637Z" style="fill:rgb(64,63,65);fill-rule:nonzero;"/>
        <path d="M218.8,71.742L218.903,71.752L218.904,71.744L218.812,71.721L218.8,71.742ZM218.743,71.564C218.731,71.333 218.562,71.329 218.399,71.33L218.384,71.478C218.464,71.502 218.511,71.441 218.478,71.355C218.538,71.576 218.656,71.67 218.812,71.721C218.843,71.653 218.892,71.582 218.872,71.529L218.743,71.564ZM217.704,70.808C217.724,70.855 217.769,70.809 217.817,70.774L217.669,70.679L217.704,70.808ZM216.952,71.535C216.915,71.55 217.034,71.302 216.96,71.331C216.813,71.329 216.651,71.425 216.538,71.382C216.462,71.422 216.488,71.11 216.413,71.15C216.255,71.179 215.817,71.423 216.009,71.469C216.298,71.525 216.511,71.507 216.778,71.554L217.493,71.554L217.642,71.663L217.481,71.434C217.411,71.31 217.134,71.561 216.952,71.535ZM217.468,70.58L217.47,70.58L217.374,70.571L217.419,70.683L217.468,70.58ZM217.505,70.571L217.47,70.58L217.529,70.588L217.505,70.571ZM220.132,66.239C219.944,66.175 219.825,65.966 219.854,65.651C220.177,65.646 220.194,65.926 220.132,66.239ZM213.759,69.806C213.667,69.841 213.562,69.773 213.486,69.625C213.611,69.528 213.695,69.656 213.759,69.806ZM223.488,71.48C223.274,71.242 223.181,70.941 223.24,70.502C223.229,70.682 223.099,70.747 222.978,70.633L223.12,70.386C223.413,70.529 223.692,70.695 223.511,71.13C223.511,71.13 223.673,71.172 223.753,71.193C223.738,71.308 223.599,71.39 223.488,71.48L223.622,71.618C223.774,71.373 223.837,70.833 223.837,70.832C223.39,70.146 222.931,69.527 222.534,68.882C222.417,68.899 222.3,68.94 222.298,68.844L222.327,68.593L222.136,68.324L222.029,68.26L222.026,68.26C221.94,68.251 221.89,68.316 221.856,68.393L221.854,68.164L221.812,68.118C221.82,68.123 221.829,68.129 221.839,68.134C221.843,68.145 221.853,68.154 221.854,68.164L221.99,68.238L221.995,68.242L221.995,68.241L222.029,68.26L222.101,68.272L221.669,67.645L221.536,67.553C221.37,67.457 221.19,67.379 221.296,67.126L221.212,67.019L221.195,67.069L221.195,67L220.843,66.542C220.604,66.25 220.39,65.924 220.113,65.645C218.458,63.712 216.481,62.363 213.929,61.23C212.522,60.659 211.013,60.102 209.142,60.313C205.2,61.324 203.735,64.612 203.493,68.965C203.462,70.499 204.784,72.255 205.778,73.2C205.695,73.542 205.611,73.864 205.497,74.128C205.276,74.701 205.565,75.995 206.384,76.881C208.235,77.68 207.753,75.832 207.86,75.914C208.263,74.994 207.839,75.259 208.216,74.437C207.978,74.952 207.49,74.212 208.175,73.7C209.181,72.855 208.45,72.336 208.909,72.26C209.046,72.245 209.089,72.145 209.183,72.061C210.036,72.006 210.929,71.259 212.253,71.411C212.585,71.422 212.896,71.136 213.206,71.041C213.427,71.033 213.638,71.206 213.81,71.235C214.083,71.279 214.335,71.223 214.589,71.143C214.322,71.15 214.124,71.192 213.837,71.185C213.646,71.169 214.022,70.858 214.167,70.804C214.235,70.753 214.263,71.067 214.329,71.015C214.445,71.034 214.579,70.932 214.728,70.877C214.796,70.826 214.728,71.094 214.761,71.068C214.95,71.024 215.165,70.752 215.257,70.855L215.45,71.053L215.585,71.116L215.697,71.081L216.575,70.925L216.579,70.901C216.425,70.878 216.294,70.808 216.195,70.599C216.24,70.679 216.208,70.748 216.128,70.738L216.113,70.589C216.271,70.559 216.433,70.532 216.485,70.759C216.485,70.759 216.563,70.719 216.603,70.7C216.632,70.749 216.599,70.829 216.579,70.901L216.675,70.909C216.665,70.763 216.531,70.532 216.529,70.532L215.46,70.143C215.419,70.185 215.384,70.239 215.356,70.197L215.3,70.074L215.151,70.011L215.091,70.022L215.089,70.024L215.058,70.134L214.993,70.044L215.069,70.027L215.07,70.027L215.091,70.022L215.122,70.003L214.769,69.903L214.688,69.912C214.593,69.933 214.501,69.955 214.472,69.815L214.409,69.795L214.415,69.822L214.397,69.792L214.128,69.71L213.589,69.548C212.388,69.249 211.235,69.265 209.913,69.421C209.542,69.455 209.169,69.525 208.788,69.618C208.663,69.335 208.572,68.987 208.665,68.39C208.604,69.546 207.101,68.227 208.319,67.243C210.009,66.595 208.999,65.616 210.093,65.115C210.22,65.08 210.347,65.067 210.485,64.981C211.384,65.327 213.853,65.232 215.88,66.906C216.435,67.29 217.212,67.291 217.839,67.512C218.243,67.729 218.415,68.242 218.659,68.507C219.056,68.911 219.546,69.118 220.013,69.348C219.608,68.99 219.218,68.828 218.755,68.462C218.458,68.203 219.417,68.184 219.716,68.28C219.882,68.284 219.587,68.804 219.751,68.804C219.919,68.982 220.231,69.008 220.519,69.117C220.681,69.129 220.276,69.455 220.358,69.461C220.677,69.659 221.38,69.459 221.425,69.731L221.529,70.278L221.681,70.542L221.903,70.629C222.442,70.841 222.999,71.157 223.454,71.511L223.488,71.48ZM225.253,72.12L225.343,72.207L225.317,72.147L225.253,72.12ZM225.058,72.214C225.108,72.143 225.171,72.089 225.251,72.118L225.253,72.12L225.108,71.983L225.058,72.214ZM224.927,71.717L225.108,71.983C225.101,71.883 225.042,71.793 224.927,71.717ZM225.382,72.768C225.363,72.865 225.485,72.85 225.604,72.859L225.468,72.522L225.382,72.768ZM223.376,72.95C223.3,72.928 223.765,72.689 223.601,72.645C223.331,72.48 223.009,72.4 222.878,72.185C222.72,72.148 223.115,71.69 222.956,71.651C222.695,71.48 221.737,71.3 221.988,71.616C222.36,72.087 222.685,72.351 223.05,72.77C223.468,73.043 223.849,73.331 224.233,73.661C224.313,73.768 224.331,73.895 224.354,74.02L224.343,73.462C224.362,73.18 223.64,73.22 223.376,72.95ZM226.351,75.423C226.274,75.384 226.12,75.306 226.12,75.306C226.372,74.923 226.126,74.694 225.888,74.479L225.692,74.695C225.779,74.838 225.923,74.805 225.976,74.624C225.804,75.055 225.87,75.362 226.036,75.645C226.161,75.581 226.317,75.534 226.351,75.423ZM226.136,75.82L226.146,75.808L226.036,75.645L225.995,75.668L226.136,75.82Z" style="fill:rgb(64,63,65);fill-rule:nonzero;"/>
        <path d="M253.87,40.77L253.868,40.73L253.208,40.468L253.167,40.583L253.87,40.77ZM238.587,37.826C239.03,37.572 239.351,37.212 239.7,36.891C239.298,37.011 238.915,37.353 238.587,37.826ZM240.571,36.145L240.392,36.361L240.85,36.036L240.571,36.145ZM240.603,36.902C240.364,36.786 240.185,36.633 240.384,36.368L240.392,36.361L239.7,36.891C240.017,36.829 240.323,36.838 240.603,36.902ZM249.198,62.639C248.241,62.383 248.267,61.504 248.343,60.601C248.981,60.886 249.317,61.717 249.198,62.639ZM238.415,45.02C238.429,45.195 238.45,45.368 238.475,45.54L237.981,45.909C237.528,45.003 237.085,43.775 238.304,43.052C238.312,43.059 238.046,42.572 237.97,42.32C238.173,42.16 238.419,42.181 238.669,42.229C238.468,42.981 238.382,43.706 238.388,44.408C238.247,44.699 238.081,45.006 237.87,45.342C238.044,45.026 238.255,44.933 238.415,45.02ZM251.999,37.562C251.772,37.54 251.519,37.415 251.345,37.185C251.663,37.13 251.862,37.321 251.999,37.562ZM252.905,39.15C253.009,39.14 253.065,39.303 253.132,39.431C252.862,39.444 252.571,39.461 252.571,39.461C252.544,39.351 252.503,39.26 252.466,39.163C252.63,39.146 252.796,39.14 252.905,39.15ZM255.634,59.04C254.149,57.483 253.138,55.347 251.894,54.135C250.126,52.363 247.401,50.976 246.182,50.641C247.394,51.432 249.628,52.552 251.577,54.21C252.962,55.392 249.407,54.607 248.333,54.153C247.759,54.083 248.136,52.414 247.546,52.334C246.575,51.576 245.766,51.653 244.888,51.409C244.405,51.402 245.394,50.427 245.161,50.434C244.63,50.128 243.642,50.189 242.954,50.072C242.932,49.908 242.923,49.743 242.94,49.579C243.187,47.817 241.894,46.272 241.714,44.711C242.062,44.901 242.327,44.913 242.288,44.587C242.146,43.478 242.04,42.845 242.391,42.121C242.391,42.02 242.401,41.918 242.421,41.815C242.954,41.043 243.634,40.299 244.47,39.749C244.85,39.712 245.2,39.834 245.538,39.933C245.304,39.812 245.05,39.685 244.78,39.556C245.718,39.018 246.833,38.728 248.146,38.902C248.94,38.968 249.745,38.774 250.521,38.838C250.819,38.883 251.103,39.006 251.37,39.138C251.919,39.727 252.497,40.181 253.208,40.468C253.286,40.27 253.392,40.071 253.442,39.875C253.593,39.912 253.745,39.956 253.896,39.986C253.739,39.929 253.593,39.877 253.45,39.829C253.462,39.766 253.47,39.703 253.466,39.641C253.7,39.703 253.958,39.705 254.233,39.75C254.399,39.743 254.226,40.044 254.309,40.04C254.743,40.192 255.272,39.977 255.487,40.205L255.956,40.652L256.269,40.873L256.53,40.933C257.165,41.074 257.855,41.331 258.493,41.592L258.502,41.561C258.159,41.368 257.864,41.125 257.644,40.718C257.747,40.882 257.677,40.948 257.499,40.853L257.462,40.627C257.812,40.73 258.153,40.861 258.288,41.252C258.288,41.252 258.456,41.273 258.54,41.284C258.604,41.387 258.538,41.472 258.502,41.561L258.709,41.671C258.677,41.438 258.374,40.961 258.374,40.961C257.548,40.395 256.749,39.889 255.964,39.404C255.868,39.427 255.786,39.471 255.725,39.391L255.593,39.178L255.249,38.966L255.112,38.921L255.108,38.922C255.024,38.92 255.019,38.978 255.034,39.045L254.891,38.855L254.819,38.825L254.856,38.834C254.866,38.841 254.88,38.847 254.891,38.855L255.062,38.906L255.067,38.908L255.112,38.921L255.185,38.926L254.38,38.47L254.192,38.413C253.975,38.359 253.755,38.306 253.698,38.094L253.554,38.013L253.569,38.055L253.526,37.999L252.891,37.699C252.47,37.514 252.06,37.282 251.601,37.138C248.786,36.003 245.493,35.755 242.487,37.56C240.946,38.524 239.583,39.888 238.833,41.674C238.817,41.717 238.81,41.76 238.796,41.803C237.997,42.081 237.065,43.065 237.124,43.112C236.677,46.214 237.624,49.128 239.069,51.538C239.407,51.577 239.741,51.523 239.757,51.857C239.694,52.171 239.722,52.426 239.786,52.659L240.532,53.65L240.897,53.913L240.909,53.913C241.134,53.971 241.243,53.829 241.307,53.635C241.321,53.658 241.339,53.68 241.354,53.703C241.37,53.903 241.419,54.092 241.524,54.261C241.673,54.342 241.813,54.433 241.95,54.531C241.833,54.466 241.708,54.404 241.583,54.342C241.563,54.315 241.54,54.29 241.524,54.261L240.897,53.913L240.673,53.841C241.247,54.607 241.978,55.208 242.634,55.912C242.817,56.024 242.999,56.149 243.147,56.204C243.757,56.458 244.382,56.73 244.263,57.495L244.603,57.825L244.61,57.673L244.663,57.882L246.016,59.353C246.888,60.314 247.682,61.361 248.435,62.438C250.763,65.93 252.557,69.668 252.726,73.208C252.937,76.849 250.636,78.874 248.034,77.761C244.833,76.372 241.896,72.391 239.786,68.635C238.048,65.505 236.132,62.601 234.325,59.607L234.37,59.639C234.37,59.639 228.833,43.611 218.751,42.48C216.937,42.276 215.286,42.176 213.772,42.164C213.813,41.567 213.435,41.068 213.103,40.588L213.179,40.86C213.36,41.154 213.419,41.173 213.288,40.887C213.536,41.297 213.63,41.728 213.706,42.163C209.663,42.137 206.649,42.757 204.36,43.841C204.089,43.722 203.806,43.625 203.516,43.555C199.479,42.352 200.976,39.043 200.976,39.043C189.421,49.283 188.532,56.453 189.255,60.136C189.415,61.214 189.778,62.164 190.354,62.916C190.391,62.966 190.413,62.995 190.413,62.995L190.417,62.989C190.687,63.327 190.991,63.631 191.35,63.88C194.556,66.12 200.12,63.704 203.903,58.489C208.36,60.184 209.021,56.701 214.173,57.968C210.263,57.269 216.642,53.728 218.122,57.978C218.563,60.915 218.503,61.202 220.026,62.979C221.87,65.414 224.729,68.705 226.251,71.931C227.048,73.624 228.427,75.056 229.788,76.877C233.282,81.729 236.364,87.01 246.792,89.381C252.511,90.472 259.716,86.629 261.819,81.029C264.118,75.554 263.153,71.061 262.187,67.236C260.829,63.195 257.923,60.978 255.634,59.04ZM263.284,45.202L263.269,45.229L263.464,45.365L263.466,45.354L263.284,45.202ZM263.378,44.937C263.298,44.907 263.138,44.849 263.138,44.85C263.089,44.422 262.747,44.253 262.429,44.074L262.423,44.308C262.583,44.434 262.667,44.382 262.591,44.202C262.747,44.635 262.993,44.931 263.284,45.202C263.337,45.122 263.421,45.053 263.378,44.937ZM259.862,41.642L260.181,41.864C260.108,41.777 260.006,41.7 259.862,41.642ZM260.39,41.965L260.392,41.966L260.181,41.864L260.294,42.073C260.288,42.004 260.303,41.949 260.39,41.965ZM260.463,41.981L260.392,41.966L260.522,42.032L260.463,41.981ZM240.888,37.016L241.249,37.16C241.177,37.115 241.038,37.069 240.888,37.016ZM243.905,35.502C243.386,35.523 242.85,35.614 242.319,35.678C242.606,35.725 242.896,35.832 243.179,36.029C243.522,36.14 243.661,35.776 243.905,35.502ZM261.153,42.594L260.825,42.304L260.917,42.539C260.966,42.629 261.053,42.601 261.153,42.594ZM258.153,41.762C257.81,41.643 256.833,41.534 257.269,41.809C257.933,42.204 258.405,42.408 258.993,42.784C259.534,43.006 260.06,43.226 260.591,43.5L260.931,43.829L260.544,43.3C260.366,43.039 259.812,43.141 259.394,42.925C259.312,42.913 259.536,42.648 259.372,42.621C259.036,42.49 258.708,42.438 258.452,42.246C258.288,42.226 258.319,41.782 258.153,41.762ZM210.675,38.349C210.47,38.201 210.228,38.124 210.003,38.013L210.325,38.212L210.675,38.349ZM209.1,37.693L209.306,37.833C209.269,37.806 209.167,37.733 209.1,37.693ZM208.759,37.538C208.583,37.469 208.374,37.4 208.126,37.337L208.759,37.538ZM209.249,37.671L209.138,37.643L209.368,37.726L209.249,37.671ZM214.415,36.849C213.884,36.242 214.958,37.132 215.187,37.64C215.2,37.681 215.212,37.732 215.225,37.783C215.126,37.714 215.03,37.662 214.935,37.606C214.807,37.359 214.646,37.108 214.415,36.849ZM215.315,38.664C215.28,38.726 215.247,38.787 215.251,38.834L215.247,38.801C215.233,38.726 215.231,38.65 215.231,38.575C215.261,38.603 215.286,38.635 215.315,38.664ZM207.612,36.952C208.282,36.843 208.931,36.608 209.646,36.726C209.339,36.699 209.374,36.659 209.725,36.644L209.995,36.711C209.384,36.724 208.802,36.859 208.226,36.888C208.226,36.888 207.976,36.971 207.853,37.011C207.661,37.028 207.659,36.982 207.612,36.952L207.218,37.041C207.519,37.055 208.405,36.976 208.405,36.976C210.069,36.644 211.735,36.736 213.187,37.294C213.307,37.311 213.401,37.312 213.544,37.384L213.86,37.572L214.437,37.93L214.647,38.046L214.653,38.047C214.771,38.102 214.753,38.065 214.698,38.006L214.96,38.269C215.017,38.317 215.077,38.364 215.138,38.412C215.1,38.379 215.056,38.347 215.013,38.315C214.995,38.3 214.975,38.285 214.96,38.269L214.87,38.205L214.714,38.082L214.784,38.143L214.647,38.046L214.544,37.998C214.778,38.162 214.997,38.347 215.202,38.543C215.204,38.64 215.204,38.736 215.228,38.83L215.247,39L215.247,39.009C215.335,38.976 215.44,38.938 215.263,38.972L215.251,38.842C215.261,38.899 215.337,38.932 215.546,38.913C215.562,38.931 215.579,38.946 215.593,38.963C215.425,39.001 215.313,39.025 215.251,39.037L215.253,39.043C215.38,39.014 215.491,38.988 215.593,38.964C215.616,38.991 215.646,39.015 215.667,39.043C215.726,39.215 216.1,39.057 215.921,38.952C215.919,38.931 215.917,38.91 215.915,38.888C215.915,38.877 215.913,38.867 215.913,38.856C215.997,38.839 216.093,38.817 216.198,38.792C216.093,38.674 215.991,38.568 215.888,38.466C215.882,38.262 215.876,38.077 215.85,37.941L215.763,37.664L215.769,37.721L215.747,37.615C215.661,37.208 215.384,36.889 215.187,36.535C214.757,35.969 214.218,35.492 213.624,35.075C213.804,35.228 214.001,35.458 214.063,35.515C213.911,35.476 213.462,35.015 213.317,34.974C213.36,34.893 213.475,34.953 213.601,35.056C213.534,35.011 213.479,34.957 213.415,34.914C214.985,35.376 217.911,36.426 219.255,38.384C219.601,38.757 219.896,39.178 220.177,39.605C220.159,39.709 220.144,39.814 220.12,39.918L220.101,40.036C220.671,39.985 219.269,40.114 220.438,40.008L220.581,40.248C220.839,40.25 220.153,40.519 221.187,40.303L221.237,40.058C221.243,40.017 221.253,39.976 221.263,39.934C221.391,39.922 221.517,39.911 221.667,39.897L221.665,39.893L221.659,39.883L221.649,39.865L221.628,39.828L221.589,39.754L221.425,39.48L221.368,39.393C221.384,39.286 221.394,39.178 221.386,39.066C221.432,38.475 221.315,37.873 221.1,37.303C221.956,38.002 222.679,38.876 223.323,39.765C223.7,39.953 223.694,40.346 223.841,40.658C223.766,40.66 223.729,40.661 223.841,40.659C223.983,40.96 224.267,41.184 225.185,41.065C225.251,40.917 225.294,40.771 225.337,40.625C225.384,40.624 225.421,40.623 225.47,40.622L225.46,40.605L225.44,40.572L225.399,40.505L225.386,40.481C225.528,39.924 225.534,39.38 225.542,38.849C225.54,38.597 225.519,38.354 225.501,38.11C225.728,38.198 225.938,38.295 225.976,38.504C226.932,39.343 227.858,40.21 228.628,41.211C230.212,43.169 231.399,45.47 232.046,48.041C232.632,49.981 233.257,53.72 233.19,55.685C233.339,58.282 233.981,57.012 234.052,56.87C234.597,55.272 234.446,53.96 234.142,50.792C234.257,52.241 233.532,48.624 233.042,46.572C232.466,43.277 229.431,39.363 226.216,36.919L225.608,36.435L225.294,36.191L225.274,36.175L225.266,36.167L225.259,36.164C226.413,35.381 223.685,37.228 223.966,37.039L223.966,37.042L223.975,37.082L223.991,37.166L224.022,37.346C224.093,37.777 224.157,38.241 224.177,38.714L224.167,38.699C223.206,37.489 222.167,36.293 220.573,35.496L220.429,35.419L220.356,35.381L220.347,35.376L220.343,35.374C221.146,34.015 219.245,37.223 219.44,36.893L219.45,36.901L219.567,37.02L219.81,37.347C219.825,37.37 219.835,37.397 219.85,37.421C219.45,36.99 219.028,36.574 218.562,36.185C217.095,35.118 215.516,34.422 213.954,34.437L213.534,34.385L213.321,34.356L213.216,34.341L213.163,34.334L213.149,34.332L213.147,34.332C213.013,34.857 213.45,33.155 212.843,35.511L212.847,35.512L212.851,35.515L212.868,35.524L213.435,35.923C213.8,36.213 214.118,36.525 214.345,36.81C214.569,37.056 214.739,37.312 214.874,37.569C214.294,37.246 213.766,37.11 213.356,36.943C212.976,36.765 212.628,36.612 212.267,36.552L211.571,36.421L211.106,36.379C209.976,36.438 208.716,36.579 207.593,36.943L207.612,36.952ZM209.134,37.641L209.138,37.643L208.759,37.538L209.1,37.693C209.03,37.648 209.003,37.616 209.134,37.641ZM207.134,37.722L207.952,37.91C208.888,38.144 209.798,38.402 210.675,38.867L211.347,39.298L210.462,38.674C210.022,38.405 209.38,38.301 208.62,38.074C208.499,38.051 208.571,37.922 208.323,37.874C207.85,37.391 207.026,38.412 206.931,36.834C207.185,36.751 207.628,36.828 207.874,36.746C208.454,36.532 210.026,36.185 209.087,36.28C208.394,36.424 207.825,36.552 207.274,36.676L206.864,36.77C206.772,38.564 207.054,37.302 207.134,37.722ZM216.216,38.64L215.886,38.297L216.231,38.681L216.284,38.752C216.29,38.75 216.292,38.749 216.3,38.747L216.216,38.64ZM216.296,38.769L216.312,38.79C216.511,38.738 216.396,38.755 216.296,38.769ZM216.312,38.79C216.233,38.811 216.11,38.841 215.915,38.888C216.032,38.86 216.161,38.83 216.313,38.793L216.312,38.79ZM216.296,38.769L216.284,38.752C216.155,38.787 216.218,38.78 216.296,38.769ZM215.251,39.037L215.247,39.009C215.177,39.037 215.12,39.061 215.251,39.037Z" style="fill:rgb(64,63,65);fill-rule:nonzero;"/>
    </g>
</svg>
